<?xml version="1.0" standalone="no"?>
<!DOCTYPE svg PUBLIC "-//W3C//DTD SVG 20010904//EN"
 "http://www.w3.org/TR/2001/REC-SVG-20010904/DTD/svg10.dtd">
<svg version="1.0" xmlns="http://www.w3.org/2000/svg"
 width="400.000000pt" height="400.000000pt" viewBox="0 0 400.000000 400.000000"
 preserveAspectRatio="xMidYMid meet">
<metadata>
Created by potrace 1.11, written by Peter Selinger 2001-2013
</metadata>
<g transform="translate(0.000000,400.000000) scale(0.100000,-0.100000)"
fill="#000000" stroke="none">
<path d="M750 3768 c-17 -10 -35 -30 -41 -46 -19 -47 -14 -170 11 -272 5 -19
13 -66 19 -105 14 -87 18 -111 36 -205 13 -71 52 -295 60 -350 3 -14 7 -35 10
-47 3 -13 7 -32 9 -43 4 -16 -13 -28 -94 -71 -208 -109 -328 -240 -360 -394
-21 -99 -8 -167 60 -320 10 -22 46 -107 80 -190 34 -82 68 -163 75 -180 41
-97 69 -165 120 -290 76 -187 132 -320 157 -375 11 -25 26 -61 33 -80 7 -19
21 -53 31 -75 10 -22 18 -42 19 -45 1 -3 6 -16 12 -30 6 -14 21 -50 33 -80 28
-72 67 -162 98 -228 61 -131 181 -191 274 -138 21 12 166 148 324 304 157 156
287 282 289 280 2 -2 131 -129 287 -284 168 -167 299 -289 323 -301 73 -36
154 -14 220 58 37 41 53 72 111 214 20 50 47 115 59 145 13 30 35 84 50 120
25 63 47 113 65 155 5 11 28 65 50 120 23 55 45 109 50 120 28 64 99 235 135
325 43 106 98 238 115 275 25 55 132 320 137 339 3 11 5 44 5 71 1 200 -129
366 -387 495 -38 19 -72 36 -74 37 -2 2 1 27 7 55 6 29 14 70 16 90 3 21 10
57 15 80 5 24 12 63 15 88 3 25 8 56 11 70 3 14 12 65 21 114 8 49 16 92 18
95 2 3 7 31 10 61 4 30 15 93 26 140 11 50 17 119 16 167 -1 78 -3 85 -32 114
-43 42 -96 43 -184 2 -108 -50 -404 -194 -420 -204 -8 -5 -24 -13 -36 -18 -30
-13 -335 -161 -488 -237 -71 -35 -135 -64 -143 -64 -7 0 -44 15 -81 34 -37 19
-139 69 -227 112 -88 42 -239 115 -335 162 -561 272 -549 267 -610 230z"/>
</g>
</svg>
